<svg xmlns="http://www.w3.org/2000/svg" viewBox="0 0 1050.896 267.696">
  <title>zioks</title>
  <g>
    <g>
      <path d="M.832,178.816V143.2L81.785,39.576H4.79V3.6H136.473V39.576L55.522,142.836h83.83v35.98Z"/>
      <path d="M255.029,178.816V3.6h49.29V178.816Z"/>
      <path d="M1050.9,124.273a51.725,51.725,0,0,1-21.589,43.251,72.657,72.657,0,0,1-23.746,11.121,112.265,112.265,0,0,1-29.863,3.768,159.142,159.142,0,0,1-29.682-3.055,137.4,137.4,0,0,1-27.884-8.1l7.2-34.9a147.183,147.183,0,0,0,23.746,7.379,115.012,115.012,0,0,0,24.824,2.694q12.228,0,20.327-3.6t8.1-12.951q0-8.272-7.915-12.054t-20.867-9.174q-10.442-4.318-20.149-8.813A73.961,73.961,0,0,1,936.3,89.049,50.237,50.237,0,0,1,924.429,74.3q-4.5-8.446-4.5-21.047,0-13.666,5.216-23.746A45.641,45.641,0,0,1,939.54,12.951,65.965,65.965,0,0,1,961.127,3.24,105.777,105.777,0,0,1,987.932,0,149.911,149.911,0,0,1,1016.9,2.728a96.588,96.588,0,0,1,26.805,9.628l-7.556,35.136a147.077,147.077,0,0,0-21.767-7.735,87.528,87.528,0,0,0-22.848-3.06q-10.438,0-16.729,2.338T968.5,48.9q0,7.18,7.556,10.77t17.99,8.252q7.554,3.236,17.449,7.359a86.368,86.368,0,0,1,18.529,10.59,63.193,63.193,0,0,1,14.752,15.61Q1050.892,110.64,1050.9,124.273Z"/>
      <path d="M668.124,178.816V3.6h49.29V85.99L775.7,3.6h54.687l-62.244,86.35,70.879,88.869H780.378L717.414,93.544v85.272Z"/>
      <g>
        <g>
          <path d="M573.542,69.541c1.036,1.674-2.233,4.823-3.807,6.159L521.1,114.008H463.58L521.5,68.4h48.353c2.173,0,3.269.459,3.688,1.137" fill="#007e68"/>
          <path d="M482.435,144.423l-9.647,7.594H424.474c-2.172,0-3.269-.458-3.687-1.136-1.037-1.674,4.186-6.458,4.186-6.458Z" fill="#007e68"/>
          <path d="M551.657,31.531c1.264,2.144-4.146,6.458-4.166,6.478h-57.5l9.647-7.594.02-.02H547.97C550.142,30.4,551.238,30.854,551.657,31.531Z" fill="#007e68"/>
          <path d="M508.864,68.4l-57.921,45.6H402.59c-2.173,0-3.269-.458-3.688-1.136-1.036-1.674,2.232-4.824,3.787-6.159L451.342,68.4Z" fill="#007e68"/>
        </g>
        <g>
          <path d="M573.542,69.541c-.419-.678-1.515-1.137-3.688-1.137H406.4a5.351,5.351,0,0,1-4.644-8.012l12.916-22.383H552.255a5.355,5.355,0,0,1,4.624,2.651L572.9,68.4l.638,1.137" fill="#00af91"/>
          <path d="M551.657,31.531c-.419-.677-1.515-1.136-3.687-1.136H419.033L431.271,9.228A18.483,18.483,0,0,1,447.236,0h75.58a18.424,18.424,0,0,1,15.945,9.228Z" fill="#00af91"/>
          <path d="M570.691,122.04l-12.915,22.383H420.189a5.332,5.332,0,0,1-4.624-2.671L398.9,112.872c.419.678,1.515,1.136,3.688,1.136H566.048A5.362,5.362,0,0,1,570.691,122.04Z" fill="#00af91"/>
          <path d="M553.391,152.017l-12.238,21.167a18.474,18.474,0,0,1-15.945,9.229h-75.58a18.479,18.479,0,0,1-15.965-9.229l-12.876-22.3c.418.678,1.515,1.136,3.687,1.136Z" fill="#00af91"/>
        </g>
      </g>
    </g>
    <g>
      <path d="M20.908,217.789q1.474,0,3.011.146t2.984.41q1.447.264,2.775.644a14.376,14.376,0,0,1,2.393.907l-1.182,6.043a25.892,25.892,0,0,0-4.193-1.151,24.066,24.066,0,0,0-4.547-.444q-6.736,0-10.307,3.5t-3.574,10.32q0,6.821,3.574,10.322t10.307,3.5a24.059,24.059,0,0,0,4.547-.441,25.989,25.989,0,0,0,4.193-1.154l1.182,6.045a14.288,14.288,0,0,1-2.393.908q-1.328.379-2.775.643t-2.984.41q-1.534.144-3.011.145a24.354,24.354,0,0,1-8.977-1.535,18.5,18.5,0,0,1-6.558-4.253,17.814,17.814,0,0,1-4.015-6.438,25.138,25.138,0,0,1,0-16.3,17.857,17.857,0,0,1,4.015-6.438,18.555,18.555,0,0,1,6.558-4.252A24.375,24.375,0,0,1,20.908,217.789Z" fill="#007e68"/>
      <path d="M85.817,238.165a23.131,23.131,0,0,1-1.329,7.886,19.314,19.314,0,0,1-3.84,6.467,18.012,18.012,0,0,1-6.2,4.4,20.721,20.721,0,0,1-8.416,1.624,20.719,20.719,0,0,1-8.417-1.624,18.307,18.307,0,0,1-6.231-4.4,18.646,18.646,0,0,1-3.84-6.467,24.514,24.514,0,0,1,0-15.742,18.585,18.585,0,0,1,3.84-6.5,18.257,18.257,0,0,1,6.231-4.4,20.7,20.7,0,0,1,8.417-1.624,20.7,20.7,0,0,1,8.416,1.624,17.964,17.964,0,0,1,6.2,4.4,19.246,19.246,0,0,1,3.84,6.5A23.2,23.2,0,0,1,85.817,238.165Zm-19.786,13.88a11.32,11.32,0,0,0,5.049-1.062,10.253,10.253,0,0,0,3.6-2.924,12.586,12.586,0,0,0,2.157-4.4,21.688,21.688,0,0,0,0-10.985,12.589,12.589,0,0,0-2.157-4.4,10.231,10.231,0,0,0-3.6-2.924,12.529,12.529,0,0,0-10.1,0,10.231,10.231,0,0,0-3.6,2.924,12.567,12.567,0,0,0-2.154,4.4,21.6,21.6,0,0,0,0,10.985,12.564,12.564,0,0,0,2.154,4.4,10.253,10.253,0,0,0,3.6,2.924A11.324,11.324,0,0,0,66.031,252.045Z" fill="#007e68"/>
      <path d="M136.019,247.38l6.97-28.884h8.386l-10.986,39.337H132L123.438,227l-8.563,30.831h-8.387L95.5,218.5h8.388l6.968,28.884,7.915-28.884H128.1Z" fill="#007e68"/>
      <path d="M200.632,238.165a23.131,23.131,0,0,1-1.329,7.886,19.281,19.281,0,0,1-3.84,6.467,18.008,18.008,0,0,1-6.2,4.4,22.622,22.622,0,0,1-16.833,0,18.311,18.311,0,0,1-6.232-4.4,18.646,18.646,0,0,1-3.84-6.467,24.514,24.514,0,0,1,0-15.742,18.585,18.585,0,0,1,3.84-6.5,18.262,18.262,0,0,1,6.232-4.4,22.622,22.622,0,0,1,16.833,0,17.96,17.96,0,0,1,6.2,4.4,19.213,19.213,0,0,1,3.84,6.5A23.2,23.2,0,0,1,200.632,238.165Zm-19.786,13.88a11.314,11.314,0,0,0,5.049-1.062,10.247,10.247,0,0,0,3.6-2.924,12.567,12.567,0,0,0,2.156-4.4,21.659,21.659,0,0,0,0-10.985,12.57,12.57,0,0,0-2.156-4.4,10.225,10.225,0,0,0-3.6-2.924,12.527,12.527,0,0,0-10.1,0,10.225,10.225,0,0,0-3.6,2.924,12.584,12.584,0,0,0-2.154,4.4,21.6,21.6,0,0,0,0,10.985,12.581,12.581,0,0,0,2.154,4.4,10.247,10.247,0,0,0,3.6,2.924A11.316,11.316,0,0,0,180.846,252.045Z" fill="#007e68"/>
      <path d="M245.814,230.487a10.726,10.726,0,0,1-2.362,7.059,14.836,14.836,0,0,1-6.791,4.4l13.288,15.888H239.674l-11.4-14.353h-2.657v14.353h-8.268V218.5H229.1a28.816,28.816,0,0,1,6.733.739,15.942,15.942,0,0,1,5.286,2.245,10.832,10.832,0,0,1,3.454,3.751A10.681,10.681,0,0,1,245.814,230.487Zm-8.268.177a4.661,4.661,0,0,0-2.362-4.37,12.245,12.245,0,0,0-6.143-1.36h-3.425V237.22h2.48a12.623,12.623,0,0,0,6.853-1.653A5.444,5.444,0,0,0,237.546,230.664Z" fill="#007e68"/>
      <path d="M264.42,257.833V218.5h8.268v18.9l13.643-18.9H295.9l-14.47,19.434,15.475,19.9H286.686l-14-19.313v19.313Z" fill="#007e68"/>
      <path d="M337.346,267.7V208.633h6.675V267.7Z" fill="#007e68"/>
      <path d="M407.321,217.789q1.473,0,3.01.146t2.984.41q1.447.264,2.775.644a14.422,14.422,0,0,1,2.394.907l-1.183,6.043a25.892,25.892,0,0,0-4.193-1.151,24.066,24.066,0,0,0-4.547-.444q-6.735,0-10.307,3.5t-3.574,10.32q0,6.821,3.574,10.322t10.307,3.5a24.059,24.059,0,0,0,4.547-.441,25.989,25.989,0,0,0,4.193-1.154l1.183,6.045a14.334,14.334,0,0,1-2.394.908q-1.327.379-2.775.643t-2.984.41q-1.535.144-3.01.145a24.356,24.356,0,0,1-8.978-1.535,18.512,18.512,0,0,1-6.558-4.253,17.814,17.814,0,0,1-4.015-6.438,25.138,25.138,0,0,1,0-16.3,17.857,17.857,0,0,1,4.015-6.438,18.564,18.564,0,0,1,6.558-4.252A24.377,24.377,0,0,1,407.321,217.789Z" fill="#007e68"/>
      <path d="M471.049,238.165a23.131,23.131,0,0,1-1.329,7.886,19.314,19.314,0,0,1-3.84,6.467,18.021,18.021,0,0,1-6.2,4.4,22.622,22.622,0,0,1-16.833,0,18.307,18.307,0,0,1-6.231-4.4,18.663,18.663,0,0,1-3.841-6.467,24.531,24.531,0,0,1,0-15.742,18.6,18.6,0,0,1,3.841-6.5,18.257,18.257,0,0,1,6.231-4.4,22.622,22.622,0,0,1,16.833,0,17.973,17.973,0,0,1,6.2,4.4,19.246,19.246,0,0,1,3.84,6.5A23.2,23.2,0,0,1,471.049,238.165Zm-19.786,13.88a11.32,11.32,0,0,0,5.049-1.062,10.253,10.253,0,0,0,3.6-2.924,12.586,12.586,0,0,0,2.157-4.4,21.688,21.688,0,0,0,0-10.985,12.589,12.589,0,0,0-2.157-4.4,10.231,10.231,0,0,0-3.6-2.924,12.529,12.529,0,0,0-10.1,0,10.231,10.231,0,0,0-3.6,2.924,12.567,12.567,0,0,0-2.154,4.4,21.6,21.6,0,0,0,0,10.985,12.564,12.564,0,0,0,2.154,4.4,10.253,10.253,0,0,0,3.6,2.924A11.324,11.324,0,0,0,451.263,252.045Z" fill="#007e68"/>
      <path d="M511.681,257.833l-18.369-25.751v25.751H485.4V218.5h7.913l18.369,25.752V218.5H519.6v39.337Z" fill="#007e68"/>
      <path d="M564.481,257.833l-18.368-25.751v25.751H538.2V218.5h7.913l18.368,25.752V218.5H572.4v39.337Z" fill="#007e68"/>
      <path d="M591,218.5h23.623v6.558H599.268v9.508h14.648v6.555H599.268v10.161H614.8v6.555H591Z" fill="#007e68"/>
      <path d="M649,217.789q1.473,0,3.01.146t2.984.41q1.447.264,2.775.644a14.422,14.422,0,0,1,2.394.907l-1.183,6.043a25.892,25.892,0,0,0-4.193-1.151,24.066,24.066,0,0,0-4.547-.444q-6.735,0-10.307,3.5t-3.574,10.32q0,6.821,3.574,10.322t10.307,3.5a24.059,24.059,0,0,0,4.547-.441,25.989,25.989,0,0,0,4.193-1.154l1.183,6.045a14.334,14.334,0,0,1-2.394.908q-1.328.379-2.775.643t-2.984.41q-1.534.144-3.01.145a24.356,24.356,0,0,1-8.978-1.535,18.512,18.512,0,0,1-6.558-4.253,17.814,17.814,0,0,1-4.015-6.438,25.138,25.138,0,0,1,0-16.3,17.857,17.857,0,0,1,4.015-6.438,18.564,18.564,0,0,1,6.558-4.252A24.377,24.377,0,0,1,649,217.789Z" fill="#007e68"/>
      <path d="M703.985,218.5v6.558H693.117v32.779h-8.268V225.054H673.981V218.5Z" fill="#007e68"/>
      <path d="M747.523,267.7V208.633H754.2V267.7Z" fill="#007e68"/>
      <path d="M817.5,217.789q1.474,0,3.011.146t2.983.41q1.447.264,2.776.644a14.41,14.41,0,0,1,2.393.907l-1.182,6.043a25.892,25.892,0,0,0-4.193-1.151,24.068,24.068,0,0,0-4.548-.444q-6.735,0-10.306,3.5t-3.574,10.32q0,6.821,3.574,10.322t10.306,3.5a24.062,24.062,0,0,0,4.548-.441,25.989,25.989,0,0,0,4.193-1.154l1.182,6.045a14.322,14.322,0,0,1-2.393.908q-1.327.379-2.776.643t-2.983.41q-1.534.144-3.011.145a24.363,24.363,0,0,1-8.978-1.535,18.507,18.507,0,0,1-6.557-4.253,17.814,17.814,0,0,1-4.015-6.438,25.138,25.138,0,0,1,0-16.3,17.857,17.857,0,0,1,4.015-6.438,18.56,18.56,0,0,1,6.557-4.252A24.384,24.384,0,0,1,817.5,217.789Z" fill="#007e68"/>
      <path d="M873.959,230.487a10.727,10.727,0,0,1-2.363,7.059,14.838,14.838,0,0,1-6.79,4.4l13.288,15.888H867.818l-11.4-14.353H853.76v14.353h-8.268V218.5h11.753a28.8,28.8,0,0,1,6.733.739,15.947,15.947,0,0,1,5.287,2.245,10.832,10.832,0,0,1,3.454,3.751A10.692,10.692,0,0,1,873.959,230.487Zm-8.268.177a4.662,4.662,0,0,0-2.363-4.37,12.241,12.241,0,0,0-6.142-1.36H853.76V237.22h2.48a12.62,12.62,0,0,0,6.853-1.653A5.444,5.444,0,0,0,865.691,230.664Z" fill="#007e68"/>
      <path d="M892.565,218.5h23.623v6.558H900.833v9.508h14.648v6.555H900.833v10.161h15.533v6.555h-23.8Z" fill="#007e68"/>
      <path d="M969.756,257.833h-8.563l-2.775-8.268H942.235l-2.778,8.268h-8.563L945.837,218.5h8.978Zm-19.431-32.721-5.905,17.9h11.813Z" fill="#007e68"/>
      <path d="M1007.617,218.5v6.558H996.75v32.779h-8.268V225.054H977.614V218.5Z" fill="#007e68"/>
      <path d="M1023.208,218.5h23.624v6.558h-15.356v9.508h14.648v6.555h-14.648v10.161h15.534v6.555h-23.8Z" fill="#007e68"/>
    </g>
  </g>
</svg>
